<svg id="visual" viewBox="0 0 900 200" height="200" xmlns="http://www.w3.org/2000/svg" xmlns:xlink="http://www.w3.org/1999/xlink" version="1.1" preserveAspectRatio="none">
	<path d="M0 25L82 35L164 31L245 25L327 35L409 17L491 33L573 29L655 33L736 21L818 31L900 15L900 0L818 0L736 0L655 0L573 0L491 0L409 0L327 0L245 0L164 0L82 0L0 0Z" fill="#000c1b"></path>
	<path d="M0 47L82 63L164 65L245 51L327 65L409 35L491 69L573 63L655 67L736 57L818 59L900 59L900 13L818 29L736 19L655 31L573 27L491 31L409 15L327 33L245 23L164 29L82 33L0 23Z" fill="#1e283b"></path>
	<path d="M0 81L82 81L164 81L245 91L327 111L409 59L491 85L573 109L655 97L736 83L818 87L900 103L900 57L818 57L736 55L655 65L573 61L491 67L409 33L327 63L245 49L164 63L82 61L0 45Z" fill="#3d445f"></path>
	<path d="M0 145L82 135L164 161L245 175L327 179L409 137L491 161L573 143L655 141L736 169L818 129L900 139L900 101L818 85L736 81L655 95L573 107L491 83L409 57L327 109L245 89L164 79L82 79L0 79Z" fill="#606184"></path>
	<path d="M0 201L82 201L164 201L245 201L327 201L409 201L491 201L573 201L655 201L736 201L818 201L900 201L900 137L818 127L736 167L655 139L573 141L491 159L409 135L327 177L245 173L164 159L82 133L0 143Z" fill="#8680ab"></path>
</svg>
