<svg viewBox="0 0 48 49" fill="none" xmlns="http://www.w3.org/2000/svg">
	<rect width="48" height="49" rx="5" fill="#FC5656"/>
	<path d="M34.8123 13.1879C32.5096 10.8851 30.0498 12.3755 28.5104 13.9149L21.2397 21.1861L13.9682 28.4574C12.4288 29.9966 10.8175 32.3354 13.2411 34.7587C15.6647 37.1827 18.0035 35.5711 19.5425 34.0318L26.8137 26.7606L34.0849 19.4896C35.6245 17.95 37.1147 15.4902 34.8123 13.1879Z" fill="white"/>
	<path d="M20.7464 12.8696L24.0024 16L27.3167 12.8135C27.5417 12.5966 27.7702 12.3954 28 12.2056C27.6529 10.522 26.6537 9 24.0009 9C21.343 9 20.345 10.528 20 12.2153C20.248 12.4216 20.4958 12.6285 20.7464 12.8696Z" fill="white"/>
	<path d="M27.3185 35.1505L23.9999 32L20.7393 35.095C20.4917 35.3302 20.2453 35.5451 20 35.747C20.3739 37.4448 21.4321 39 23.9985 39C26.5717 39 27.6285 37.4365 28 35.7332C27.7718 35.5467 27.5432 35.3639 27.3185 35.1505Z" fill="white"/>
	<path d="M20 20H14.0127C11.8172 20 9 20.7105 9 24.085C9 26.6029 10.5684 27.6368 12.2768 28C12.4791 27.7602 20 20 20 20Z" fill="white"/>
	<path d="M35.7863 20C35.5953 20.2263 28 28 28 28H33.9483C36.1608 28 39 27.4675 39 23.9182C39 21.3157 37.4728 20.3379 35.7863 20Z" fill="white"/>
	<path d="M21.9014 17.9554L23 16.9211L19.8122 13.9195C18.2174 12.4183 15.795 10.8467 13.2844 13.2104C11.4434 14.9436 11.8523 16.6305 12.8288 18C13.1262 17.9791 21.9014 17.9554 21.9014 17.9554Z" fill="white"/>
	<path d="M26.101 30.0425L25 31.0789L28.2457 34.1336C29.8396 35.6341 32.3865 37.0864 34.7705 34.8424C36.5494 33.1678 36.1412 31.409 35.1577 30C34.8412 30.0215 26.101 30.0425 26.101 30.0425Z" fill="white"/>
</svg>
