<svg height="100" viewBox="0 0 900 78" fill="none" xmlns="http://www.w3.org/2000/svg" preserveAspectRatio="none">
	<path d="M0 39.7359L18.8 45.3189C37.7 50.984 75.3 62.15 112.8 68.2256C150.3 74.2191 187.7 75.0401 225.2 72.9875C262.7 70.935 300.3 66.0088 337.8 60.6721C375.3 55.3355 412.7 49.5883 450.2 52.4619C487.7 55.3355 525.3 66.8298 562.8 69.0466C600.3 71.1813 637.7 64.1204 675.2 61.4932C712.7 58.8659 750.3 60.8363 787.8 63.3815C825.3 66.0088 862.7 69.2929 881.3 70.935L900 72.577V11H881.3C862.7 11 825.3 11 787.8 11C750.3 11 712.7 11 675.2 11C637.7 11 600.3 11 562.8 11C525.3 11 487.7 11 450.2 11C412.7 11 375.3 11 337.8 11C300.3 11 262.7 11 225.2 11C187.7 11 150.3 11 112.8 11C75.3 11 37.7 11 18.8 11H0V39.7359Z" fill="#6C4660"/>
	<path d="M0 55.5667L18.8 55.925C37.7 56.2833 75.3 57 112.8 56.2833C150.3 55.5667 187.7 53.4167 225.2 49.475C262.7 45.5333 300.3 39.8 337.8 37.865C375.3 36.0017 412.7 37.865 450.2 38.0083C487.7 38.1517 525.3 36.4317 562.8 39.2267C600.3 41.95 637.7 49.1167 675.2 50.1917C712.7 51.2667 750.3 46.25 787.8 46.3933C825.3 46.465 862.7 51.7683 881.3 54.3483L900 57V14H881.3C862.7 14 825.3 14 787.8 14C750.3 14 712.7 14 675.2 14C637.7 14 600.3 14 562.8 14C525.3 14 487.7 14 450.2 14C412.7 14 375.3 14 337.8 14C300.3 14 262.7 14 225.2 14C187.7 14 150.3 14 112.8 14C75.3 14 37.7 14 18.8 14H0V55.5667Z" fill="#C16671"/>
	<path d="M0 25L18.8 25.3C37.7 25.7 75.3 26.3 112.8 26C150.3 25.7 187.7 24.3 225.2 24.7C262.7 25 300.3 27 337.8 29.2C375.3 31.3 412.7 33.7 450.2 35.8C487.7 38 525.3 40 562.8 39C600.3 38 637.7 34 675.2 31.5C712.7 29 750.3 28 787.8 26C825.3 24 862.7 21 881.3 19.5L900 18V0H881.3C862.7 0 825.3 0 787.8 0C750.3 0 712.7 0 675.2 0C637.7 0 600.3 0 562.8 0C525.3 0 487.7 0 450.2 0C412.7 0 375.3 0 337.8 0C300.3 0 262.7 0 225.2 0C187.7 0 150.3 0 112.8 0C75.3 0 37.7 0 18.8 0H0V25Z" fill="#FF9B65"/>
</svg>
