<svg width="40" height="28" viewBox="0 0 40 28" xmlns="http://www.w3.org/2000/svg">
	<path d="M38.6137 23.24C38.2146 25.2 36.5189 26.6933 34.4241 26.9733C31.1324 27.44 25.6959 27.5 19.5114 27.5C13.4266 27.5 7.89046 27.44 4.49894 26.9733C2.40417 26.6933 0.708413 25.2 0.30941 23.24C-0.0895924 21.0933 0.0114136 17.92 0.0114136 14C0.0114136 10.08 -0.0895924 6.90667 0.30941 4.76C0.708413 2.8 2.40417 1.30667 4.49894 1.02667C7.79071 0.56 13.3269 0.5 19.5114 0.5C25.6959 0.5 31.0326 0.56 34.4241 1.02667C36.5189 1.30667 38.2146 2.8 38.6137 4.76C39.0127 6.90667 39.0114 10.08 39.0114 14C38.9117 17.92 39.0127 21.0933 38.6137 23.24Z" fill="#FF0000"/>
	<path d="M15.5114 20V8L27.5114 14L15.5114 20Z" fill="white"/>
</svg>
