<svg width="16" height="20" viewBox="0 0 16 20" fill="none" xmlns="http://www.w3.org/2000/svg">
<path fill-rule="evenodd" clip-rule="evenodd" d="M4 3.66529C4 3.93051 3.89465 4.18486 3.70711 4.3724C3.51957 4.55993 3.26522 4.66529 3 4.66529C2.73479 4.66529 2.48043 4.55993 2.2929 4.3724C2.10536 4.18486 2 3.93051 2 3.66529C2 3.40007 2.10536 3.14572 2.2929 2.95818C2.48043 2.77065 2.73479 2.66529 3 2.66529C3.26522 2.66529 3.51957 2.77065 3.70711 2.95818C3.89465 3.14572 4 3.40007 4 3.66529ZM4 6.49462C4.66722 6.25873 5.22956 5.79455 5.58763 5.18414C5.94571 4.57373 6.07647 3.85639 5.9568 3.15889C5.83713 2.4614 5.47473 1.82866 4.93366 1.37252C4.39259 0.916378 3.70769 0.666199 3 0.666199C2.29232 0.666199 1.60741 0.916378 1.06635 1.37252C0.525277 1.82866 0.162882 2.4614 0.0432105 3.15889C-0.0764607 3.85639 0.0542974 4.57373 0.412374 5.18414C0.770451 5.79455 1.33279 6.25873 2 6.49462V7.66529C2 8.46094 2.31608 9.224 2.87868 9.78661C3.44129 10.3492 4.20435 10.6653 5 10.6653H7V13.5026C6.33242 13.7385 5.76973 14.2029 5.4114 14.8135C5.05307 15.4242 4.92218 16.1419 5.04185 16.8398C5.16153 17.5376 5.52407 18.1707 6.06539 18.6271C6.60671 19.0835 7.29196 19.3338 8 19.3338C8.70804 19.3338 9.39329 19.0835 9.93461 18.6271C10.4759 18.1707 10.8385 17.5376 10.9581 16.8398C11.0778 16.1419 10.9469 15.4242 10.5886 14.8135C10.2303 14.2029 9.66758 13.7385 9 13.5026V10.6653H11C11.7956 10.6653 12.5587 10.3492 13.1213 9.78661C13.6839 9.224 14 8.46094 14 7.66529V6.49462C14.6672 6.25873 15.2295 5.79455 15.5876 5.18414C15.9457 4.57373 16.0765 3.85639 15.9568 3.15889C15.8371 2.4614 15.4747 1.82866 14.9337 1.37252C14.3926 0.916378 13.7077 0.666199 13 0.666199C12.2923 0.666199 11.6074 0.916378 11.0663 1.37252C10.5253 1.82866 10.1629 2.4614 10.0432 3.15889C9.92353 3.85639 10.0543 4.57373 10.4124 5.18414C10.7704 5.79455 11.3328 6.25873 12 6.49462V7.66529C12 7.9305 11.8946 8.18486 11.7071 8.37239C11.5196 8.55993 11.2652 8.66529 11 8.66529H5C4.73479 8.66529 4.48043 8.55993 4.2929 8.37239C4.10536 8.18486 4 7.9305 4 7.66529V6.49462ZM9 16.3319C9 16.5972 8.89464 16.8515 8.70711 17.0391C8.51957 17.2266 8.26522 17.3319 8 17.3319C7.73478 17.3319 7.48043 17.2266 7.29289 17.0391C7.10536 16.8515 7 16.5972 7 16.3319C7 16.0667 7.10536 15.8124 7.29289 15.6248C7.48043 15.4373 7.73478 15.3319 8 15.3319C8.26522 15.3319 8.51957 15.4373 8.70711 15.6248C8.89464 15.8124 9 16.0667 9 16.3319ZM13 4.66529C13.2652 4.66529 13.5196 4.55993 13.7071 4.3724C13.8946 4.18486 14 3.93051 14 3.66529C14 3.40007 13.8946 3.14572 13.7071 2.95818C13.5196 2.77065 13.2652 2.66529 13 2.66529C12.7348 2.66529 12.4804 2.77065 12.2929 2.95818C12.1054 3.14572 12 3.40007 12 3.66529C12 3.93051 12.1054 4.18486 12.2929 4.3724C12.4804 4.55993 12.7348 4.66529 13 4.66529Z" fill="#AAAAAA"/>
</svg>
