<svg
	xmlns="http://www.w3.org/2000/svg"
	width="32"
	height="32"
	viewBox="0 0 32 32"
>
	<path
		fill-rule="evenodd"
		clip-rule="evenodd"
		d="M16 0.394717C7.16 0.394717 0 7.55472 0 16.3947C0 23.4747 4.58 29.4547 10.94 31.5747C11.74 31.7147 12.04 31.2347 12.04 30.8147C12.04 30.4347 12.02 29.1747 12.02 27.8347C8 28.5747 6.96 26.8547 6.64 25.9547C6.46 25.4947 5.68 24.0747 5 23.6947C4.44 23.3947 3.64 22.6547 4.98 22.6347C6.24 22.6147 7.14 23.7947 7.44 24.2747C8.88 26.6947 11.18 26.0147 12.1 25.5947C12.24 24.5547 12.66 23.8547 13.12 23.4547C9.56 23.0547 5.84 21.6747 5.84 15.5547C5.84 13.8147 6.46 12.3747 7.48 11.2547C7.32 10.8547 6.76 9.21472 7.64 7.01472C7.64 7.01472 8.98 6.59472 12.04 8.65472C13.32 8.29472 14.68 8.11472 16.04 8.11472C17.4 8.11472 18.76 8.29472 20.04 8.65472C23.1 6.57472 24.44 7.01472 24.44 7.01472C25.32 9.21472 24.76 10.8547 24.6 11.2547C25.62 12.3747 26.24 13.7947 26.24 15.5547C26.24 21.6947 22.5 23.0547 18.94 23.4547C19.52 23.9547 20.02 24.9147 20.02 26.4147C20.02 28.5547 20 30.2747 20 30.8147C20 31.2347 20.3 31.7347 21.1 31.5747C24.2763 30.5024 27.0363 28.4611 28.9917 25.738C30.947 23.0149 31.9991 19.7471 32 16.3947C32 7.55472 24.84 0.394717 16 0.394717Z"
	/>
</svg>
