<svg width="16" height="16" viewBox="0 0 16 16" fill="none" xmlns="http://www.w3.org/2000/svg">
<path fill-rule="evenodd" clip-rule="evenodd" d="M8.00102 0.352722C8.15222 0.352625 8.30043 0.394853 8.42887 0.474628C8.55731 0.554403 8.66086 0.668539 8.72779 0.804117L10.7601 4.9239L15.3065 5.5848C15.456 5.60651 15.5965 5.66962 15.712 5.76699C15.8276 5.86436 15.9135 5.99211 15.9603 6.13579C16.007 6.27948 16.0126 6.43337 15.9765 6.58008C15.9403 6.72678 15.8639 6.86045 15.7557 6.96598L12.4664 10.1733L13.2428 14.7002C13.2684 14.8491 13.2518 15.0023 13.1949 15.1423C13.138 15.2823 13.0431 15.4036 12.9209 15.4925C12.7986 15.5813 12.654 15.6342 12.5032 15.6452C12.3525 15.6561 12.2017 15.6246 12.0679 15.5544L8.00102 13.4162L3.93415 15.5544C3.80045 15.6246 3.64978 15.656 3.49916 15.6451C3.34854 15.6342 3.20397 15.5814 3.08177 15.4926C2.95958 15.4039 2.86462 15.2828 2.80762 15.1429C2.75063 15.0031 2.73387 14.8501 2.75923 14.7012L3.53675 10.1722L0.245243 6.96598C0.136786 6.8605 0.0600411 6.72675 0.0237055 6.57988C-0.0126301 6.43302 -0.0071037 6.27891 0.0396584 6.13503C0.0864206 5.99115 0.172549 5.86324 0.288283 5.7658C0.404018 5.66836 0.544731 5.60528 0.694478 5.58372L5.24082 4.9239L7.27426 0.804117C7.34119 0.668539 7.44473 0.554403 7.57317 0.474628C7.70162 0.394853 7.84982 0.352625 8.00102 0.352722ZM8.00102 2.99306L6.50537 6.02215C6.44729 6.13975 6.36152 6.24149 6.25543 6.31861C6.14933 6.39574 6.0261 6.44594 5.89631 6.46491L2.55189 6.95086L4.97085 9.30934C5.06496 9.40098 5.13537 9.51414 5.17601 9.63906C5.21665 9.76398 5.22629 9.89691 5.2041 10.0264L4.63392 13.3568L7.62414 11.7845C7.74037 11.7233 7.86971 11.6914 8.00102 11.6914C8.13233 11.6914 8.26168 11.7233 8.3779 11.7845L11.3692 13.3568L10.7969 10.0264C10.7747 9.89691 10.7843 9.76398 10.825 9.63906C10.8656 9.51414 10.936 9.40098 11.0301 9.30934L13.4491 6.95194L10.1057 6.46599C9.97595 6.44702 9.85271 6.39682 9.74662 6.31969C9.64053 6.24257 9.55475 6.14083 9.49667 6.02323L8.00102 2.99198V2.99306Z" fill="#AAAAAA"/>
</svg>
